<svg xmlns="http://www.w3.org/2000/svg" style="display:none">
  <!-- Mail Icon -->
  <symbol id="icon-mail" viewBox="0 0 24 24" fill="none" stroke="currentColor" stroke-width="2" stroke-linecap="round" stroke-linejoin="round">
    <rect x="2" y="4" width="20" height="16" rx="2"/>
    <path d="m22 7-8.97 5.7a1.94 1.94 0 0 1-3.06 0L2 7"/>
  </symbol>

  <!-- Sparkles Icon -->
  <symbol id="icon-sparkles" viewBox="0 0 24 24" fill="none" stroke="currentColor" stroke-width="2" stroke-linecap="round" stroke-linejoin="round">
    <path d="m12 3-1.912 5.813a2 2 0 0 1-1.275 1.275L3 12l5.813 1.912a2 2 0 0 1 1.275 1.275L12 21l1.912-5.813a2 2 0 0 1 1.275-1.275L21 12l-5.813-1.912a2 2 0 0 1-1.275-1.275L12 3Z"/>
    <path d="M5 3v4"/>
    <path d="M19 17v4"/>
    <path d="M3 5h4"/>
    <path d="M17 19h4"/>
  </symbol>

  <!-- Copy Icon -->
  <symbol id="icon-copy" viewBox="0 0 24 24" fill="none" stroke="currentColor" stroke-width="2" stroke-linecap="round" stroke-linejoin="round">
    <rect x="9" y="9" width="13" height="13" rx="2" ry="2"/>
    <path d="M5 15H4a2 2 0 0 1-2-2V4a2 2 0 0 1 2-2h9a2 2 0 0 1 2 2v1"/>
  </symbol>

  <!-- Trash Icon -->
  <symbol id="icon-trash" viewBox="0 0 24 24" fill="none" stroke="currentColor" stroke-width="2" stroke-linecap="round" stroke-linejoin="round">
    <path d="M3 6h18"/>
    <path d="M19 6v14c0 1-1 2-2 2H7c-1 0-2-1-2-2V6"/>
    <path d="M8 6V4c0-1 1-2 2-2h4c1 0 2 1 2 2v2"/>
    <line x1="10" x2="10" y1="11" y2="17"/>
    <line x1="14" x2="14" y1="11" y2="17"/>
  </symbol>

  <!-- Refresh Icon -->
  <symbol id="icon-refresh" viewBox="0 0 24 24" fill="none" stroke="currentColor" stroke-width="2" stroke-linecap="round" stroke-linejoin="round">
    <path d="M21 12a9 9 0 0 0-9-9 9.75 9.75 0 0 0-6.74 2.74L3 8"/>
    <path d="M3 3v5h5"/>
    <path d="M3 12a9 9 0 0 0 9 9 9.75 9.75 0 0 0 6.74-2.74L21 16"/>
    <path d="M16 16h5v5"/>
  </symbol>

  <!-- Forward Icon -->
  <symbol id="icon-forward" viewBox="0 0 24 24" fill="none" stroke="currentColor" stroke-width="2" stroke-linecap="round" stroke-linejoin="round">
    <polyline points="15 17 20 12 15 7"/>
    <line x1="4" x2="20" y1="12" y2="12"/>
  </symbol>

  <!-- Star Icon -->
  <symbol id="icon-star" viewBox="0 0 24 24" fill="none" stroke="currentColor" stroke-width="2" stroke-linecap="round" stroke-linejoin="round">
    <polygon points="12 2 15.09 8.26 22 9.27 17 14.14 18.18 21.02 12 17.77 5.82 21.02 7 14.14 2 9.27 8.91 8.26 12 2"/>
  </symbol>

  <!-- Star Empty Icon -->
  <symbol id="icon-star-empty" viewBox="0 0 24 24" fill="none" stroke="currentColor" stroke-width="2" stroke-linecap="round" stroke-linejoin="round">
    <polygon points="12 2 15.09 8.26 22 9.27 17 14.14 18.18 21.02 12 17.77 5.82 21.02 7 14.14 2 9.27 8.91 8.26 12 2"/>
  </symbol>

  <!-- Settings Icon -->
  <symbol id="icon-settings" viewBox="0 0 24 24" fill="none" stroke="currentColor" stroke-width="2" stroke-linecap="round" stroke-linejoin="round">
    <path d="M12.22 2h-.44a2 2 0 0 0-2 2v.18a2 2 0 0 1-1 1.73l-.43.25a2 2 0 0 1-2 0l-.15-.08a2 2 0 0 0-2.73.73l-.22.38a2 2 0 0 0 .73 2.73l.15.1a2 2 0 0 1 1 1.72v.51a2 2 0 0 1-1 1.74l-.15.09a2 2 0 0 0-.73 2.73l.22.38a2 2 0 0 0 2.73.73l.15-.08a2 2 0 0 1 2 0l.43.25a2 2 0 0 1 1 1.73V20a2 2 0 0 0 2 2h.44a2 2 0 0 0 2-2v-.18a2 2 0 0 1 1-1.73l.43-.25a2 2 0 0 1 2 0l.15.08a2 2 0 0 0 2.73-.73l.22-.39a2 2 0 0 0-.73-2.73l-.15-.08a2 2 0 0 1-1-1.74v-.5a2 2 0 0 1 1-1.74l.15-.09a2 2 0 0 0 .73-2.73l-.22-.38a2 2 0 0 0-2.73-.73l-.15.08a2 2 0 0 1-2 0l-.43-.25a2 2 0 0 1-1-1.73V4a2 2 0 0 0-2-2z"/>
    <circle cx="12" cy="12" r="3"/>
  </symbol>

  <!-- Globe Icon -->
  <symbol id="icon-globe" viewBox="0 0 24 24" fill="none" stroke="currentColor" stroke-width="2" stroke-linecap="round" stroke-linejoin="round">
    <circle cx="12" cy="12" r="10"/>
    <line x1="2" x2="22" y1="12" y2="12"/>
    <path d="M12 2a15.3 15.3 0 0 1 4 10 15.3 15.3 0 0 1-4 10 15.3 15.3 0 0 1-4-10 15.3 15.3 0 0 1 4-10z"/>
  </symbol>

  <!-- Ruler Icon -->
  <symbol id="icon-ruler" viewBox="0 0 24 24" fill="none" stroke="currentColor" stroke-width="2" stroke-linecap="round" stroke-linejoin="round">
    <path d="M21.3 8.7 8.7 21.3c-1 1-2.5 1-3.4 0l-2.6-2.6c-1-1-1-2.5 0-3.4L15.3 3.7c1-1 2.5-1 3.4 0l2.6 2.6c1 1 1 2.5 0 3.4Z"/>
    <path d="m7.5 10.5 2 2"/>
    <path d="m10.5 7.5 2 2"/>
    <path d="m13.5 4.5 2 2"/>
    <path d="m4.5 13.5 2 2"/>
  </symbol>

  <!-- Dice Icon -->
  <symbol id="icon-dice" viewBox="0 0 24 24" fill="none" stroke="currentColor" stroke-width="2" stroke-linecap="round" stroke-linejoin="round">
    <rect x="2" y="2" width="20" height="20" rx="2"/>
    <circle cx="8" cy="8" r="1.5" fill="currentColor"/>
    <circle cx="16" cy="8" r="1.5" fill="currentColor"/>
    <circle cx="8" cy="16" r="1.5" fill="currentColor"/>
    <circle cx="16" cy="16" r="1.5" fill="currentColor"/>
    <circle cx="12" cy="12" r="1.5" fill="currentColor"/>
  </symbol>

  <!-- User Icon -->
  <symbol id="icon-user" viewBox="0 0 24 24" fill="none" stroke="currentColor" stroke-width="2" stroke-linecap="round" stroke-linejoin="round">
    <path d="M19 21v-2a4 4 0 0 0-4-4H9a4 4 0 0 0-4 4v2"/>
    <circle cx="12" cy="7" r="4"/>
  </symbol>

  <!-- User Plus Icon -->
  <symbol id="icon-user-plus" viewBox="0 0 24 24" fill="none" stroke="currentColor" stroke-width="2" stroke-linecap="round" stroke-linejoin="round">
    <path d="M16 21v-2a4 4 0 0 0-4-4H6a4 4 0 0 0-4 4v2"/>
    <circle cx="9" cy="7" r="4"/>
    <line x1="19" x2="19" y1="8" y2="14"/>
    <line x1="22" x2="16" y1="11" y2="11"/>
  </symbol>

  <!-- Inbox Icon -->
  <symbol id="icon-inbox" viewBox="0 0 24 24" fill="none" stroke="currentColor" stroke-width="2" stroke-linecap="round" stroke-linejoin="round">
    <polyline points="22 12 16 12 14 15 10 15 8 12 2 12"/>
    <path d="M5.45 5.11L2 12v6a2 2 0 0 0 2 2h16a2 2 0 0 0 2-2v-6l-3.45-6.89A2 2 0 0 0 16.76 4H7.24a2 2 0 0 0-1.79 1.11z"/>
  </symbol>

  <!-- Send Icon -->
  <symbol id="icon-send" viewBox="0 0 24 24" fill="none" stroke="currentColor" stroke-width="2" stroke-linecap="round" stroke-linejoin="round">
    <line x1="22" x2="11" y1="2" y2="13"/>
    <polygon points="22 2 15 22 11 13 2 9 22 2"/>
  </symbol>

  <!-- Logout Icon -->
  <symbol id="icon-logout" viewBox="0 0 24 24" fill="none" stroke="currentColor" stroke-width="2" stroke-linecap="round" stroke-linejoin="round">
    <path d="M9 21H5a2 2 0 0 1-2-2V5a2 2 0 0 1 2-2h4"/>
    <polyline points="16 17 21 12 16 7"/>
    <line x1="21" x2="9" y1="12" y2="12"/>
  </symbol>

  <!-- GitHub Icon -->
  <symbol id="icon-github" viewBox="0 0 24 24" fill="currentColor">
    <path d="M12 0c-6.626 0-12 5.373-12 12 0 5.302 3.438 9.8 8.207 11.387.599.111.793-.261.793-.577v-2.234c-3.338.726-4.033-1.416-4.033-1.416-.546-1.387-1.333-1.756-1.333-1.756-1.089-.745.083-.729.083-.729 1.205.084 1.839 1.237 1.839 1.237 1.07 1.834 2.807 1.304 3.492.997.107-.775.418-1.305.762-1.604-2.665-.305-5.467-1.334-5.467-5.931 0-1.311.469-2.381 1.236-3.221-.124-.303-.535-1.524.117-3.176 0 0 1.008-.322 3.301 1.23.957-.266 1.983-.399 3.003-.404 1.02.005 2.047.138 3.006.404 2.291-1.552 3.297-1.23 3.297-1.23.653 1.653.242 2.874.118 3.176.77.84 1.235 1.911 1.235 3.221 0 4.609-2.807 5.624-5.479 5.921.43.372.823 1.102.823 2.222v3.293c0 .319.192.694.801.576 4.765-1.589 8.199-6.086 8.199-11.386 0-6.627-5.373-12-12-12z"/>
  </symbol>

  <!-- Wrench Icon -->
  <symbol id="icon-wrench" viewBox="0 0 24 24" fill="none" stroke="currentColor" stroke-width="2" stroke-linecap="round" stroke-linejoin="round">
    <path d="M14.7 6.3a1 1 0 0 0 0 1.4l1.6 1.6a1 1 0 0 0 1.4 0l3.77-3.77a6 6 0 0 1-7.94 7.94l-6.91 6.91a2 2 0 0 1-2.83 0l-1.3-1.3a2 2 0 0 1 0-2.83l6.91-6.91a6 6 0 0 1 7.94-7.94l-3.76 3.76z"/>
  </symbol>

  <!-- Package Icon -->
  <symbol id="icon-package" viewBox="0 0 24 24" fill="none" stroke="currentColor" stroke-width="2" stroke-linecap="round" stroke-linejoin="round">
    <path d="m7.5 4.27 9 5.15"/>
    <path d="M21 8a2 2 0 0 0-1-1.73l-7-4a2 2 0 0 0-2 0l-7 4A2 2 0 0 0 3 8v8a2 2 0 0 0 1 1.73l7 4a2 2 0 0 0 2 0l7-4A2 2 0 0 0 21 16Z"/>
    <path d="m3.3 7 8.7 5 8.7-5"/>
    <path d="M12 22V12"/>
  </symbol>

  <!-- Chevron Left Icon -->
  <symbol id="icon-chevron-left" viewBox="0 0 24 24" fill="none" stroke="currentColor" stroke-width="2" stroke-linecap="round" stroke-linejoin="round">
    <polyline points="15 18 9 12 15 6"/>
  </symbol>

  <!-- Chevron Down Icon -->
  <symbol id="icon-chevron-down" viewBox="0 0 24 24" fill="none" stroke="currentColor" stroke-width="2" stroke-linecap="round" stroke-linejoin="round">
    <polyline points="6 9 12 15 18 9"/>
  </symbol>

  <!-- X Close Icon -->
  <symbol id="icon-x" viewBox="0 0 24 24" fill="none" stroke="currentColor" stroke-width="2" stroke-linecap="round" stroke-linejoin="round">
    <line x1="18" x2="6" y1="6" y2="18"/>
    <line x1="6" x2="18" y1="6" y2="18"/>
  </symbol>

  <!-- Pin/置顶图标 - 旗帜样式（更直观） -->
  <symbol id="icon-pin" viewBox="0 0 24 24" fill="none" stroke="currentColor" stroke-width="2" stroke-linecap="round" stroke-linejoin="round">
    <path d="M4 15s1-1 4-1 5 2 8 2 4-1 4-1V3s-1 1-4 1-5-2-8-2-4 1-4 1z"/>
    <line x1="4" x2="4" y1="22" y2="15"/>
  </symbol>

  <!-- 备选：书签样式 -->
  <symbol id="icon-pin-bookmark" viewBox="0 0 24 24" fill="none" stroke="currentColor" stroke-width="2" stroke-linecap="round" stroke-linejoin="round">
    <path d="m19 21-7-4-7 4V5a2 2 0 0 1 2-2h10a2 2 0 0 1 2 2v16z"/>
  </symbol>

  <!-- 备选：向上箭头样式 -->
  <symbol id="icon-pin-arrow" viewBox="0 0 24 24" fill="none" stroke="currentColor" stroke-width="2" stroke-linecap="round" stroke-linejoin="round">
    <path d="M12 19V5"/>
    <path d="m5 12 7-7 7 7"/>
  </symbol>

  <!-- Alert Icon -->
  <symbol id="icon-alert" viewBox="0 0 24 24" fill="none" stroke="currentColor" stroke-width="2" stroke-linecap="round" stroke-linejoin="round">
    <path d="m21.73 18-8-14a2 2 0 0 0-3.48 0l-8 14A2 2 0 0 0 3.76 21h16.48a2 2 0 0 0 1.73-3Z"/>
    <line x1="12" x2="12" y1="9" y2="13"/>
    <line x1="12" x2="12.01" y1="17" y2="17"/>
  </symbol>

  <!-- Lock Icon -->
  <symbol id="icon-lock" viewBox="0 0 24 24" fill="none" stroke="currentColor" stroke-width="2" stroke-linecap="round" stroke-linejoin="round">
    <rect x="3" y="11" width="18" height="11" rx="2" ry="2"/>
    <path d="M7 11V7a5 5 0 0 1 10 0v4"/>
  </symbol>

  <!-- Inbox Empty Icon -->
  <symbol id="icon-inbox-empty" viewBox="0 0 24 24" fill="none" stroke="currentColor" stroke-width="2" stroke-linecap="round" stroke-linejoin="round">
    <rect x="2" y="4" width="20" height="16" rx="2"/>
    <path d="m2 7 10 6 10-6"/>
  </symbol>

  <!-- Home Icon -->
  <symbol id="icon-home" viewBox="0 0 24 24" fill="none" stroke="currentColor" stroke-width="2" stroke-linecap="round" stroke-linejoin="round">
    <path d="m3 9 9-7 9 7v11a2 2 0 0 1-2 2H5a2 2 0 0 1-2-2z"/>
    <polyline points="9 22 9 12 15 12 15 22"/>
  </symbol>

  <!-- Search Icon -->
  <symbol id="icon-search" viewBox="0 0 24 24" fill="none" stroke="currentColor" stroke-width="2" stroke-linecap="round" stroke-linejoin="round">
    <circle cx="11" cy="11" r="8"/>
    <line x1="21" x2="16.65" y1="21" y2="16.65"/>
  </symbol>

  <!-- Check Icon -->
  <symbol id="icon-check" viewBox="0 0 24 24" fill="none" stroke="currentColor" stroke-width="2" stroke-linecap="round" stroke-linejoin="round">
    <polyline points="20 6 9 17 4 12"/>
  </symbol>

  <!-- X Circle Icon -->
  <symbol id="icon-x-circle" viewBox="0 0 24 24" fill="none" stroke="currentColor" stroke-width="2" stroke-linecap="round" stroke-linejoin="round">
    <circle cx="12" cy="12" r="10"/>
    <line x1="15" x2="9" y1="9" y2="15"/>
    <line x1="9" x2="15" y1="9" y2="15"/>
  </symbol>

  <!-- Grid Icon -->
  <symbol id="icon-grid" viewBox="0 0 24 24" fill="none" stroke="currentColor" stroke-width="2" stroke-linecap="round" stroke-linejoin="round">
    <rect x="3" y="3" width="7" height="7"/>
    <rect x="14" y="3" width="7" height="7"/>
    <rect x="14" y="14" width="7" height="7"/>
    <rect x="3" y="14" width="7" height="7"/>
  </symbol>

  <!-- List Icon -->
  <symbol id="icon-list" viewBox="0 0 24 24" fill="none" stroke="currentColor" stroke-width="2" stroke-linecap="round" stroke-linejoin="round">
    <line x1="8" x2="21" y1="6" y2="6"/>
    <line x1="8" x2="21" y1="12" y2="12"/>
    <line x1="8" x2="21" y1="18" y2="18"/>
    <line x1="3" x2="3.01" y1="6" y2="6"/>
    <line x1="3" x2="3.01" y1="12" y2="12"/>
    <line x1="3" x2="3.01" y1="18" y2="18"/>
  </symbol>

  <!-- Rocket Icon -->
  <symbol id="icon-rocket" viewBox="0 0 24 24" fill="none" stroke="currentColor" stroke-width="2" stroke-linecap="round" stroke-linejoin="round">
    <path d="M4.5 16.5c-1.5 1.26-2 5-2 5s3.74-.5 5-2c.71-.84.7-2.13-.09-2.91a2.18 2.18 0 0 0-2.91-.09z"/>
    <path d="m12 15-3-3a22 22 0 0 1 2-3.95A12.88 12.88 0 0 1 22 2c0 2.72-.78 7.5-6 11a22.35 22.35 0 0 1-4 2z"/>
    <path d="M9 12H4s.55-3.03 2-4c1.62-1.08 5 0 5 0"/>
    <path d="M12 15v5s3.03-.55 4-2c1.08-1.62 0-5 0-5"/>
  </symbol>

  <!-- Plus Icon -->
  <symbol id="icon-plus" viewBox="0 0 24 24" fill="none" stroke="currentColor" stroke-width="2" stroke-linecap="round" stroke-linejoin="round">
    <line x1="12" x2="12" y1="5" y2="19"/>
    <line x1="5" x2="19" y1="12" y2="12"/>
  </symbol>

  <!-- Wave Hand Icon (替代👋) -->
  <symbol id="icon-hand" viewBox="0 0 24 24" fill="none" stroke="currentColor" stroke-width="2" stroke-linecap="round" stroke-linejoin="round">
    <path d="M18.5 12.5c0 1.5-1.2 2.5-3 2.5h-6c-1.8 0-3-1-3-2.5"/>
    <path d="M3.5 10c.5-2 2-4 5-4h6c3 0 5.5 2.5 5.5 5.5v2c0 3-2 5.5-5 5.5h-8c-3 0-4.5-2.5-4.5-5.5v-1"/>
  </symbol>

  <!-- Key Icon -->
  <symbol id="icon-key" viewBox="0 0 24 24" fill="none" stroke="currentColor" stroke-width="2" stroke-linecap="round" stroke-linejoin="round">
    <path d="M21 2l-2 2m-7.61 7.61a5.5 5.5 0 1 1-7.778 7.778 5.5 5.5 0 0 1 7.777-7.777zm0 0L15.5 7.5m0 0l3 3L22 7l-3-3m-3.5 3.5L19 4"/>
  </symbol>

  <!-- Unlock Icon -->
  <symbol id="icon-unlock" viewBox="0 0 24 24" fill="none" stroke="currentColor" stroke-width="2" stroke-linecap="round" stroke-linejoin="round">
    <rect x="3" y="11" width="18" height="11" rx="2" ry="2"/>
    <path d="M7 11V7a5 5 0 0 1 9.9-1"/>
  </symbol>

  <!-- Clock Icon -->
  <symbol id="icon-clock" viewBox="0 0 24 24" fill="none" stroke="currentColor" stroke-width="2" stroke-linecap="round" stroke-linejoin="round">
    <circle cx="12" cy="12" r="10"/>
    <polyline points="12 6 12 12 16 14"/>
  </symbol>

  <!-- Download Icon -->
  <symbol id="icon-download" viewBox="0 0 24 24" fill="none" stroke="currentColor" stroke-width="2" stroke-linecap="round" stroke-linejoin="round">
    <path d="M21 15v4a2 2 0 0 1-2 2H5a2 2 0 0 1-2-2v-4"/>
    <polyline points="7 10 12 15 17 10"/>
    <line x1="12" x2="12" y1="15" y2="3"/>
  </symbol>

  <!-- More Horizontal Icon -->
  <symbol id="icon-more-horizontal" viewBox="0 0 24 24" fill="none" stroke="currentColor" stroke-width="2" stroke-linecap="round" stroke-linejoin="round">
    <circle cx="12" cy="12" r="1"/>
    <circle cx="19" cy="12" r="1"/>
    <circle cx="5" cy="12" r="1"/>
  </symbol>

  <!-- Check Circle Icon -->
  <symbol id="icon-check-circle" viewBox="0 0 24 24" fill="none" stroke="currentColor" stroke-width="2" stroke-linecap="round" stroke-linejoin="round">
    <path d="M22 11.08V12a10 10 0 1 1-5.93-9.14"/>
    <polyline points="22 4 12 14.01 9 11.01"/>
  </symbol>

  <!-- Users Icon -->
  <symbol id="icon-users" viewBox="0 0 24 24" fill="none" stroke="currentColor" stroke-width="2" stroke-linecap="round" stroke-linejoin="round">
    <path d="M17 21v-2a4 4 0 0 0-4-4H5a4 4 0 0 0-4 4v2"/>
    <circle cx="9" cy="7" r="4"/>
    <path d="M23 21v-2a4 4 0 0 0-3-3.87"/>
    <path d="M16 3.13a4 4 0 0 1 0 7.75"/>
  </symbol>

  <!-- Edit/Pencil Icon -->
  <symbol id="icon-edit" viewBox="0 0 24 24" fill="none" stroke="currentColor" stroke-width="2" stroke-linecap="round" stroke-linejoin="round">
    <path d="M11 4H4a2 2 0 0 0-2 2v14a2 2 0 0 0 2 2h14a2 2 0 0 0 2-2v-7"/>
    <path d="M18.5 2.5a2.121 2.121 0 0 1 3 3L12 15l-4 1 1-4 9.5-9.5z"/>
  </symbol>

  <!-- Sun Icon (Light Mode) -->
  <symbol id="icon-sun" viewBox="0 0 24 24" fill="none" stroke="currentColor" stroke-width="2" stroke-linecap="round" stroke-linejoin="round">
    <circle cx="12" cy="12" r="4"/>
    <path d="M12 2v2"/>
    <path d="M12 20v2"/>
    <path d="m4.93 4.93 1.41 1.41"/>
    <path d="m17.66 17.66 1.41 1.41"/>
    <path d="M2 12h2"/>
    <path d="M20 12h2"/>
    <path d="m6.34 17.66-1.41 1.41"/>
    <path d="m19.07 4.93-1.41 1.41"/>
  </symbol>

  <!-- Moon Icon (Dark Mode) -->
  <symbol id="icon-moon" viewBox="0 0 24 24" fill="none" stroke="currentColor" stroke-width="2" stroke-linecap="round" stroke-linejoin="round">
    <path d="M12 3a6 6 0 0 0 9 9 9 9 0 1 1-9-9Z"/>
  </symbol>
</svg>